# xmcd
#
# Track frame offsets:
#	150
#	12544
#	28239
#	41945
#	56024
#	66258
#	79483
#	87700
#	100207
#	110498
#	122296
#	133120
#	144076
#	153301
#	163731
#	175982
#	190779
#	204378
#
# Disc length: 2962
#
# Revision: 1
# Processed by: cddbd v1.5.1PL0 Copyright (c) Steve Scherf et al.
# Submitted via: dBpowerAMP V4.0
# Normalized: r0:TDELIM( - )
#
DISCID=030b9012
DTITLE=Various Artist - The Best of Country cd1
DYEAR=2002
DGENRE=Country
TTITLE0=Kenny Rogers - Ruben James
TTITLE1=Skeeter Davis - Desperado
TTITLE2=Don Williams - Where do we go from here
TTITLE3=Billie Jo Spears - Which way you're going Billy
TTITLE4=Dolly Parton - Release Me
TTITLE5=Charlie Rich - Behind closed doors
TTITLE6=Johnny Cash - Guess things happen that way
TTITLE7=Gene Audry - Goodnight Irene
TTITLE8=Buck Owens - Under the Influence of love
TTITLE9=Johnny Dollar - Big, big Rolling Man
TTITLE10=Patsy Cline - I cries all the way the altar
TTITLE11=Hank Locklin - Send me the pillow
TTITLE12=The Harden Trio - Tippytoeing
TTITLE13=Jim Nesbitt - Running Bare
TTITLE14=Sandford Clark - They call me Country
TTITLE15=Roy Clark - Yesterday when I was young
TTITLE16=Wilma Burgess - Baby
TTITLE17=Glen Campbell - Southern Nights
EXTD=
EXTT0=
EXTT1=
EXTT2=
EXTT3=
EXTT4=
EXTT5=
EXTT6=
EXTT7=
EXTT8=
EXTT9=
EXTT10=
EXTT11=
EXTT12=
EXTT13=
EXTT14=
EXTT15=
EXTT16=
EXTT17=
PLAYORDER=
